<svg xmlns="http://www.w3.org/2000/svg" viewBox="0 0 128 128"><path fill="#03a1dc" d="M123 26.8c0 12.5-9.3 24.6-22.9 26.2-2.4.3-4.9.3-7.3.8-7.8 1.6-11.2 11.1-6 17.1 2.1 2.5 5.1 3.4 8.3 3.7 3.3.4 6.8.5 9.9 1.6 10.1 3.4 15.9 10.7 17.6 21.2 2.3 14.2-7.3 27-20.6 30-14.5 3.3-29.5-6.5-32.1-21.1-1.2-6.4.1-12.3 3-17.9 1.2-2.4 2.2-4.7 2.1-7.5-.2-4.4-3-8-7.4-9.5-3.8-1.3-8.1-.1-10.8 3.2-1.7 2.1-3.1 4.5-4.8 6.6-6.9 8.3-15.9 11.2-26.3 8.9-10.5-2.5-17.3-9.3-19.9-19.7C2 55.6 11.4 40.6 26.4 37.8c11-2.1 20 1.5 26.8 10.5 1.4 1.9 2.7 4.1 4.4 5.7 5.5 5.5 15.4 2.8 17.3-4.7.7-2.9.1-5.7-1.3-8.4-2.5-4.8-4.3-9.9-4.1-15.4C69.9 12.8 80 1.9 92.6.2c14.2-1.8 27.3 7.5 30 21.7.2 1.6.3 3.3.4 4.9z"/></svg>