<svg xmlns="http://www.w3.org/2000/svg" width="64" height="65" viewBox="0 0 64 65"><g fill="none" fill-rule="nonzero"><circle cx="32.2" cy="32.4" r="31.7" fill="#00A478"/><path fill="#FFF" d="M28.6 29.4v-8.1H17.9v-7.1h29.9v7.2H37.1v8z"/><path fill="#FFF" d="M32.6 26.2c11.2 0 17 3.1 17.7 4.1-.7 1-6.4 2.5-17.7 2.5-11.2 0-17-1.5-17.7-2.5.7-1.1 6.5-4.1 17.7-4.1zm0-.8c-10.7 0-19.3 2.2-19.3 4.9s8.6 4.9 19.3 4.9c10.7 0 19.3-2.2 19.3-4.9s-8.6-4.9-19.3-4.9z"/><g fill="#FFF" transform="translate(28 26)"><path d="M9.1 5.9V.3C7.7.2 6.2.1 4.7.1 3.3.1 2 .1.7.2v5.6c1.2 0 2.6.1 4 .1 1.5.1 3 .1 4.4 0zM4.6 9.2c-1.4 0-2.7 0-4-.1V24H9V9c-1.4.1-2.9.2-4.4.2z"/></g></g></svg>